<svg width="112" height="37" viewBox="0 0 112 37" fill="none" xmlns="http://www.w3.org/2000/svg">
<path d="M0 15.4167C0 6.90228 6.90228 0 15.4167 0H96.5833C105.098 0 112 6.90228 112 15.4167V15.4167C112 23.9311 105.098 30.8333 96.5833 30.8333H79.605C75.2168 30.8333 70.8744 31.7248 66.8413 33.4538L58.5688 37L51.1007 33.7986C46.5368 31.8422 41.623 30.8333 36.6575 30.8333H15.4167C6.90228 30.8333 0 23.9311 0 15.4167V15.4167Z" fill="white"/>
<path d="M15.4167 0.5H96.5833C104.822 0.5 111.5 7.17842 111.5 15.4167C111.5 23.6549 104.822 30.3333 96.5833 30.3333H79.605C75.1491 30.3333 70.7397 31.2386 66.6443 32.9942L58.5688 36.456L51.2977 33.339C46.6716 31.3559 41.6908 30.3333 36.6575 30.3333H15.4167C7.17842 30.3333 0.5 23.6549 0.5 15.4167C0.5 7.17842 7.17842 0.5 15.4167 0.5Z" stroke="black" stroke-opacity="0.3"/>
</svg>
