<svg width="143" height="149" viewBox="0 0 143 149" fill="none" xmlns="http://www.w3.org/2000/svg">
<path opacity="0.1" d="M136.693 3C136.693 4.47276 137.887 5.66667 139.36 5.66667C140.833 5.66667 142.026 4.47276 142.026 3C142.026 1.52724 140.833 0.333333 139.36 0.333333C137.887 0.333333 136.693 1.52724 136.693 3ZM123.433 97.4517L123.02 97.1699L123.02 97.1701L123.433 97.4517ZM0.654304 144.566C0.454797 144.757 0.447837 145.074 0.63876 145.273L3.75002 148.524C3.94095 148.724 4.25745 148.731 4.45696 148.54C4.65647 148.349 4.66343 148.032 4.4725 147.833L1.70694 144.943L4.59686 142.177C4.79636 141.986 4.80332 141.67 4.6124 141.47C4.42148 141.271 4.10497 141.264 3.90546 141.455L0.654304 144.566ZM138.866 3.07636C140.353 12.6976 141.346 28.9707 139.485 46.4748C137.623 63.9847 132.909 82.6738 123.02 97.1699L123.846 97.7334C133.866 83.0444 138.609 64.1695 140.479 46.5806C142.35 28.986 141.353 12.6259 139.854 2.92364L138.866 3.07636ZM123.02 97.1701C119.809 101.882 116.967 104.113 114.709 104.806C113.591 105.149 112.618 105.114 111.798 104.825C110.975 104.534 110.271 103.975 109.714 103.216C108.594 101.687 108.095 99.3757 108.46 97.0368C108.823 94.7087 110.034 92.4029 112.269 90.8674L111.703 90.0431C109.21 91.756 107.871 94.3226 107.472 96.8827C107.074 99.4318 107.602 102.024 108.908 103.807C109.564 104.702 110.424 105.4 111.465 105.768C112.509 106.136 113.703 106.16 115.002 105.762C117.582 104.97 120.587 102.516 123.847 97.7332L123.02 97.1701ZM112.269 90.8674C114.566 89.2895 117.45 88.1901 120.354 87.732C123.262 87.2735 126.15 87.4636 128.469 88.4188C130.773 89.3677 132.515 91.0678 133.2 93.6746C133.892 96.3044 133.528 99.9311 131.436 104.749L132.354 105.147C134.493 100.22 134.938 96.3501 134.167 93.4202C133.391 90.4673 131.4 88.5443 128.85 87.4942C126.317 86.4505 123.232 86.2658 120.198 86.7442C117.161 87.2232 114.135 88.3727 111.703 90.0431L112.269 90.8674ZM131.436 104.749C129.378 109.489 124.498 114.451 117.189 119.209C109.892 123.959 100.228 128.471 88.685 132.334C65.6005 140.061 35.0499 145.176 1.01099 144.427L0.989009 145.427C35.135 146.178 65.8011 141.048 89.0024 133.283C100.602 129.4 110.349 124.855 117.734 120.047C125.107 115.247 130.181 110.152 132.354 105.147L131.436 104.749Z" fill="black"/>
</svg>
