<svg width="182" height="125" viewBox="0 0 182 125" fill="none" xmlns="http://www.w3.org/2000/svg">
<path fill-rule="evenodd" clip-rule="evenodd" d="M34.0621 43.9334H10.0632V20.5478L34.0621 5.99871V43.9334ZM51.5492 64V43.1536H61.1701V64H63.4397V41.962C63.4397 41.6467 63.3203 41.3433 63.1072 41.1195C62.8941 40.8958 62.6052 40.7703 62.3049 40.7703H50.4144C50.1141 40.7703 49.8252 40.8958 49.6121 41.1195C49.4007 41.3433 49.2812 41.6467 49.2812 41.962V64H51.5492ZM10.0325 64V54.0396H18.8172V64H21.0868V52.8479C21.0868 52.5309 20.9674 52.2292 20.7543 52.0055C20.5412 51.7817 20.2523 51.6563 19.952 51.6563H8.89932C8.59745 51.6563 8.3085 51.7817 8.09704 52.0055C7.88396 52.2292 7.7645 52.5309 7.7645 52.8479V64H10.0325ZM10.0325 64V54.0396H18.8172V64H21.0868V52.8479C21.0868 52.5309 20.9674 52.2292 20.7543 52.0055C20.5412 51.7817 20.2523 51.6563 19.952 51.6563H8.89932C8.59745 51.6563 8.3085 51.7817 8.09704 52.0055C7.88396 52.2292 7.7645 52.5309 7.7645 52.8479V64H10.0325ZM10.0325 64V54.0396H18.8172V64H21.0868V52.8479C21.0868 52.5309 20.9674 52.2292 20.7543 52.0055C20.5412 51.7817 20.2523 51.6563 19.952 51.6563H8.89932C8.59745 51.6563 8.3085 51.7817 8.09704 52.0055C7.88396 52.2292 7.7645 52.5309 7.7645 52.8479V64H10.0325ZM10.0325 64V54.0396H18.8172V64H21.0868V52.8479C21.0868 52.5309 20.9674 52.2292 20.7543 52.0055C20.5412 51.7817 20.2523 51.6563 19.952 51.6563H8.89932C8.59745 51.6563 8.3085 51.7817 8.09704 52.0055C7.88396 52.2292 7.7645 52.5309 7.7645 52.8479V64H10.0325ZM10.0325 64V54.0396H18.8172V64H21.0868V52.8479C21.0868 52.5309 20.9674 52.2292 20.7543 52.0055C20.5412 51.7817 20.2523 51.6563 19.952 51.6563H8.89932C8.59745 51.6563 8.3085 51.7817 8.09704 52.0055C7.88396 52.2292 7.7645 52.5309 7.7645 52.8479V64H10.0325ZM2.26801 64V46.315H44.1205V64H46.3901V45.125C46.3901 44.8081 46.2706 44.5063 46.0576 44.2826C45.8445 44.0588 45.5555 43.9334 45.2553 43.9334H36.3301V21.1546L67.732 28.9419V64H70V27.9994C70 27.7316 69.9144 27.4706 69.7562 27.2604C69.5964 27.0502 69.3753 26.9027 69.1267 26.84L36.3301 18.7069V4.62399L40.2899 2.22372C40.5514 2.06438 40.7402 1.80503 40.8193 1.49991C40.8968 1.1948 40.8565 0.869336 40.7063 0.596425C40.5546 0.321818 40.3076 0.123492 40.0171 0.0404315C39.7265 -0.0409333 39.4166 0.0014442 39.1551 0.159089L3.01056 22.0734C2.75067 22.231 2.56019 22.4921 2.4827 22.7972C2.40522 23.1023 2.44558 23.4277 2.5957 23.7007C2.74583 23.9736 2.99442 24.1736 3.28498 24.255C3.57555 24.338 3.88387 24.2939 4.14537 24.1363L7.79518 21.9242V43.9334H1.1332C0.832949 43.9334 0.544 44.0588 0.332534 44.2826C0.119454 44.5063 0 44.8081 0 45.125V64H2.26801Z" fill="black"/>
<path d="M149.893 124.329L163.346 109.187L155.602 94.9395H161.141L166.737 105.611H167.077L176.234 94.9395H182L169.225 109.355L177.308 124.329H171.768L165.946 113.098H165.607L155.715 124.329H149.893Z" fill="black"/>
<path d="M135.432 124.999C132.492 124.999 130.005 124.459 127.97 123.379C125.973 122.261 124.447 120.567 123.391 118.294C122.374 116.022 121.865 113.135 121.865 109.634C121.865 106.095 122.374 103.208 123.391 100.973C124.447 98.7012 125.992 97.025 128.027 95.9448C130.062 94.8273 132.605 94.2686 135.658 94.2686C138.446 94.2686 140.783 94.8087 142.667 95.8889C144.551 96.9319 145.964 98.515 146.906 100.638C147.886 102.724 148.376 105.35 148.376 108.516V110.863H127.009C127.085 113.21 127.424 115.147 128.027 116.674C128.667 118.164 129.609 119.263 130.853 119.971C132.097 120.641 133.66 120.976 135.545 120.976C136.826 120.976 137.938 120.827 138.88 120.529C139.859 120.194 140.67 119.728 141.31 119.132C141.989 118.536 142.497 117.829 142.837 117.009C143.176 116.19 143.364 115.296 143.402 114.327H148.263C148.225 115.892 147.924 117.344 147.359 118.685C146.793 119.989 145.964 121.107 144.871 122.038C143.779 122.969 142.441 123.695 140.858 124.217C139.275 124.738 137.467 124.999 135.432 124.999ZM127.122 107.175H143.232C143.232 105.536 143.044 104.158 142.667 103.041C142.29 101.923 141.744 101.011 141.028 100.303C140.349 99.5952 139.539 99.0923 138.597 98.7943C137.693 98.4591 136.656 98.2915 135.488 98.2915C133.755 98.2915 132.285 98.6081 131.079 99.2413C129.873 99.8746 128.95 100.843 128.309 102.147C127.669 103.45 127.273 105.127 127.122 107.175Z" fill="black"/>
<path d="M90.5781 124.329V94.939H94.5915L95.0437 99.3531H95.4394C96.2308 98.1611 97.1163 97.1926 98.0961 96.4476C99.1136 95.7027 100.225 95.1625 101.431 94.8273C102.675 94.4548 103.994 94.2686 105.388 94.2686C107.272 94.2686 108.912 94.5852 110.306 95.2184C111.738 95.8516 112.85 96.876 113.641 98.2915C114.47 99.7069 114.884 101.625 114.884 104.046V124.329H109.91V104.717C109.91 103.488 109.741 102.482 109.401 101.7C109.1 100.918 108.667 100.303 108.101 99.8559C107.574 99.4089 106.914 99.0923 106.123 98.9061C105.369 98.7198 104.521 98.6267 103.579 98.6267C102.185 98.6267 100.866 98.962 99.6224 99.6324C98.3788 100.303 97.3801 101.271 96.6265 102.538C95.9105 103.804 95.5524 105.313 95.5524 107.064V124.329H90.5781Z" fill="black"/>
<path d="M70.6777 124.329V94.939H74.6911L75.1433 99.8001H75.539C75.8405 98.8688 76.255 97.9935 76.7826 97.174C77.3102 96.3173 78.0262 95.6282 78.9306 95.1067C79.835 94.5479 80.9467 94.2686 82.2657 94.2686C82.8309 94.2686 83.3397 94.3244 83.7919 94.4362C84.2818 94.5107 84.6398 94.6038 84.8659 94.7155V99.2413H83.0005C81.7192 99.2413 80.6075 99.4648 79.6654 99.9118C78.761 100.322 78.0073 100.918 77.4044 101.7C76.8014 102.482 76.3492 103.413 76.0477 104.493C75.784 105.574 75.6521 106.728 75.6521 107.958V124.329H70.6777Z" fill="black"/>
<path d="M50.4511 124.999C47.5117 124.999 45.0246 124.459 42.9896 123.379C40.9924 122.261 39.4661 120.567 38.411 118.294C37.3935 116.022 36.8848 113.135 36.8848 109.634C36.8848 106.095 37.3935 103.208 38.411 100.973C39.4661 98.7012 41.0112 97.025 43.0461 95.9448C45.0811 94.8273 47.6248 94.2686 50.6772 94.2686C53.4659 94.2686 55.8023 94.8087 57.6865 95.8889C59.5707 96.9319 60.9839 98.515 61.926 100.638C62.9058 102.724 63.3957 105.35 63.3957 108.516V110.863H42.0287C42.104 113.21 42.4432 115.147 43.0461 116.674C43.6868 118.164 44.6289 119.263 45.8725 119.971C47.1161 120.641 48.6799 120.976 50.5642 120.976C51.8454 120.976 52.9571 120.827 53.8992 120.529C54.879 120.194 55.6892 119.728 56.3299 119.132C57.0082 118.536 57.5169 117.829 57.8561 117.009C58.1952 116.19 58.3837 115.296 58.4213 114.327H63.2826C63.2449 115.892 62.9435 117.344 62.3782 118.685C61.8129 119.989 60.9839 121.107 59.891 122.038C58.7982 122.969 57.4604 123.695 55.8776 124.217C54.2949 124.738 52.4861 124.999 50.4511 124.999ZM42.1417 107.175H58.2518C58.2518 105.536 58.0633 104.158 57.6865 103.041C57.3096 101.923 56.7632 101.011 56.0472 100.303C55.3689 99.5952 54.5587 99.0923 53.6166 98.7943C52.7122 98.4591 51.6758 98.2915 50.5076 98.2915C48.7742 98.2915 47.3045 98.6081 46.0986 99.2413C44.8927 99.8746 43.9694 100.843 43.3288 102.147C42.6881 103.45 42.2925 105.127 42.1417 107.175Z" fill="black"/>
<path d="M14.4708 124.329L0 86H5.82222L15.7709 113.155C15.997 113.676 16.2231 114.272 16.4492 114.943C16.6753 115.613 16.9014 116.265 17.1275 116.898C17.3536 117.531 17.5609 118.09 17.7493 118.574H18.0885C18.2392 118.127 18.4276 117.587 18.6537 116.954C18.8798 116.321 19.1059 115.688 19.332 115.054C19.5581 114.384 19.7843 113.751 20.0104 113.155L29.846 86H35.4986L20.9713 124.329H14.4708Z" fill="black"/>
</svg>
