<svg width="50" height="46" viewBox="0 0 50 46" fill="none" xmlns="http://www.w3.org/2000/svg">
<path fill-rule="evenodd" clip-rule="evenodd" d="M24.3301 31.5771H7.18799V14.7687L24.3301 4.31158V31.5771ZM36.8209 46V31.0167H43.6929V46H45.3141V30.1602C45.3141 29.9336 45.2288 29.7155 45.0766 29.5547C44.9244 29.3938 44.718 29.3037 44.5035 29.3037H36.0103C35.7958 29.3037 35.5894 29.3938 35.4372 29.5547C35.2862 29.7155 35.2009 29.9336 35.2009 30.1602V46H36.8209ZM7.16608 46V38.841H13.4409V46H15.062V37.9844C15.062 37.7566 14.9767 37.5397 14.8245 37.3789C14.6723 37.2181 14.4659 37.1279 14.2515 37.1279H6.35666C6.14104 37.1279 5.93465 37.2181 5.7836 37.3789C5.6314 37.5397 5.54607 37.7566 5.54607 37.9844V46H7.16608ZM7.16608 46V38.841H13.4409V46H15.062V37.9844C15.062 37.7566 14.9767 37.5397 14.8245 37.3789C14.6723 37.2181 14.4659 37.1279 14.2515 37.1279H6.35666C6.14104 37.1279 5.93465 37.2181 5.7836 37.3789C5.6314 37.5397 5.54607 37.7566 5.54607 37.9844V46H7.16608ZM7.16608 46V38.841H13.4409V46H15.062V37.9844C15.062 37.7566 14.9767 37.5397 14.8245 37.3789C14.6723 37.2181 14.4659 37.1279 14.2515 37.1279H6.35666C6.14104 37.1279 5.93465 37.2181 5.7836 37.3789C5.6314 37.5397 5.54607 37.7566 5.54607 37.9844V46H7.16608ZM7.16608 46V38.841H13.4409V46H15.062V37.9844C15.062 37.7566 14.9767 37.5397 14.8245 37.3789C14.6723 37.2181 14.4659 37.1279 14.2515 37.1279H6.35666C6.14104 37.1279 5.93465 37.2181 5.7836 37.3789C5.6314 37.5397 5.54607 37.7566 5.54607 37.9844V46H7.16608ZM7.16608 46V38.841H13.4409V46H15.062V37.9844C15.062 37.7566 14.9767 37.5397 14.8245 37.3789C14.6723 37.2181 14.4659 37.1279 14.2515 37.1279H6.35666C6.14104 37.1279 5.93465 37.2181 5.7836 37.3789C5.6314 37.5397 5.54607 37.7566 5.54607 37.9844V46H7.16608ZM1.62001 46V33.2889H31.5146V46H33.1358V32.4336C33.1358 32.2058 33.0505 31.9889 32.8983 31.8281C32.7461 31.6673 32.5397 31.5771 32.3252 31.5771H25.9501V15.2049L48.38 20.802V46H50V20.1246C50 19.9321 49.9389 19.7445 49.8259 19.5934C49.7117 19.4423 49.5538 19.3363 49.3762 19.2912L25.9501 13.4456V3.32349L28.7785 1.5983C28.9653 1.48378 29.1002 1.29737 29.1567 1.07806C29.212 0.858759 29.1832 0.624835 29.076 0.42868C28.9676 0.231307 28.7912 0.0887595 28.5836 0.0290602C28.3761 -0.0294208 28.1547 0.00103802 27.9679 0.114345L2.1504 15.8652C1.96476 15.9785 1.82871 16.1662 1.77336 16.3855C1.71801 16.6048 1.74684 16.8387 1.85407 17.0348C1.9613 17.231 2.13887 17.3748 2.34642 17.4333C2.55396 17.493 2.77419 17.4613 2.96098 17.348L5.56798 15.758V31.5771H0.809427C0.594964 31.5771 0.388571 31.6673 0.237524 31.8281C0.0853242 31.9889 0 32.2058 0 32.4336V46H1.62001Z" fill="white"/>
</svg>
