<svg width="171" height="40" viewBox="0 0 171 40" fill="none" xmlns="http://www.w3.org/2000/svg">
<path fill-rule="evenodd" clip-rule="evenodd" d="M21.4105 27.4584H6.32543V12.8424L21.4105 3.7492V27.4584ZM32.4024 40V26.971H38.4498V40H39.8764V26.2262C39.8764 26.0292 39.8013 25.8395 39.6674 25.6997C39.5334 25.5599 39.3518 25.4815 39.1631 25.4815H31.689C31.5003 25.4815 31.3187 25.5599 31.1848 25.6997C31.0518 25.8395 30.9768 26.0292 30.9768 26.2262V40H32.4024ZM6.30615 40V33.7747H11.828V40H13.2546V33.03C13.2546 32.8318 13.1795 32.6433 13.0456 32.5034C12.9116 32.3636 12.73 32.2852 12.5413 32.2852H5.59386C5.40411 32.2852 5.22249 32.3636 5.08957 32.5034C4.95563 32.6433 4.88055 32.8318 4.88055 33.03V40H6.30615ZM6.30615 40V33.7747H11.828V40H13.2546V33.03C13.2546 32.8318 13.1795 32.6433 13.0456 32.5034C12.9116 32.3636 12.73 32.2852 12.5413 32.2852H5.59386C5.40411 32.2852 5.22249 32.3636 5.08957 32.5034C4.95563 32.6433 4.88055 32.8318 4.88055 33.03V40H6.30615ZM6.30615 40V33.7747H11.828V40H13.2546V33.03C13.2546 32.8318 13.1795 32.6433 13.0456 32.5034C12.9116 32.3636 12.73 32.2852 12.5413 32.2852H5.59386C5.40411 32.2852 5.22249 32.3636 5.08957 32.5034C4.95563 32.6433 4.88055 32.8318 4.88055 33.03V40H6.30615ZM6.30615 40V33.7747H11.828V40H13.2546V33.03C13.2546 32.8318 13.1795 32.6433 13.0456 32.5034C12.9116 32.3636 12.73 32.2852 12.5413 32.2852H5.59386C5.40411 32.2852 5.22249 32.3636 5.08957 32.5034C4.95563 32.6433 4.88055 32.8318 4.88055 33.03V40H6.30615ZM6.30615 40V33.7747H11.828V40H13.2546V33.03C13.2546 32.8318 13.1795 32.6433 13.0456 32.5034C12.9116 32.3636 12.73 32.2852 12.5413 32.2852H5.59386C5.40411 32.2852 5.22249 32.3636 5.08957 32.5034C4.95563 32.6433 4.88055 32.8318 4.88055 33.03V40H6.30615ZM1.42561 40V28.9469H27.7329V40H29.1595V28.2032C29.1595 28.005 29.0844 27.8165 28.9505 27.6766C28.8165 27.5368 28.6349 27.4584 28.4462 27.4584H22.8361V13.2216L42.5744 18.0887V40H44V17.4996C44 17.3323 43.9462 17.1691 43.8468 17.0377C43.7463 16.9064 43.6073 16.8142 43.4511 16.775L22.8361 11.6918V2.88999L25.3251 1.38983C25.4894 1.29024 25.6082 1.12815 25.6579 0.937446C25.7066 0.746747 25.6812 0.543335 25.5868 0.372766C25.4915 0.201136 25.3362 0.0771822 25.1536 0.0252697C24.9709 -0.0255833 24.7761 0.000902623 24.6117 0.0994304L1.89235 13.7959C1.72899 13.8944 1.60926 14.0575 1.56056 14.2482C1.51185 14.4389 1.53722 14.6423 1.63158 14.8129C1.72595 14.9835 1.88221 15.1085 2.06485 15.1593C2.24749 15.2113 2.44129 15.1837 2.60566 15.0852L4.89982 13.7026V27.4584H0.712296C0.523568 27.4584 0.341943 27.5368 0.209021 27.6766C0.0750853 27.8165 0 28.005 0 28.2032V40H1.42561Z" fill="white"/>
<path d="M151.242 34.5874L159.521 25.2693L154.756 16.5014H158.165L161.608 23.0688H161.817L167.452 16.5014H171L163.139 25.3725L168.113 34.5874H164.704L161.121 27.6762H160.913L154.825 34.5874H151.242Z" fill="white"/>
<path d="M142.343 35C140.534 35 139.003 34.6676 137.751 34.0029C136.522 33.3152 135.583 32.2722 134.933 30.8739C134.307 29.4756 133.994 27.6991 133.994 25.5444C133.994 23.3668 134.307 21.5903 134.933 20.2149C135.583 18.8166 136.533 17.7851 137.786 17.1203C139.038 16.4327 140.603 16.0888 142.482 16.0888C144.198 16.0888 145.636 16.4212 146.795 17.086C147.955 17.7278 148.824 18.702 149.404 20.0086C150.007 21.2923 150.309 22.9083 150.309 24.8567V26.3009H137.16C137.206 27.745 137.415 28.937 137.786 29.8768C138.18 30.7937 138.76 31.4699 139.525 31.9054C140.29 32.3181 141.253 32.5244 142.412 32.5244C143.201 32.5244 143.885 32.4327 144.465 32.2493C145.068 32.043 145.566 31.7564 145.96 31.3897C146.378 31.0229 146.691 30.5874 146.9 30.0831C147.108 29.5788 147.224 29.0287 147.247 28.4327H150.239C150.216 29.3954 150.03 30.2894 149.682 31.1146C149.335 31.9169 148.824 32.6046 148.152 33.1777C147.479 33.7507 146.656 34.1977 145.682 34.5186C144.708 34.8395 143.595 35 142.343 35ZM137.229 24.0315H147.143C147.143 23.0229 147.027 22.1748 146.795 21.4871C146.563 20.7994 146.227 20.2378 145.786 19.8023C145.369 19.3668 144.87 19.0573 144.291 18.8739C143.734 18.6676 143.096 18.5645 142.377 18.5645C141.311 18.5645 140.406 18.7593 139.664 19.149C138.922 19.5387 138.354 20.1347 137.96 20.937C137.565 21.7393 137.322 22.7708 137.229 24.0315Z" fill="white"/>
<path d="M114.74 34.5874V16.5014H117.21L117.488 19.2178H117.732C118.219 18.4842 118.764 17.8882 119.367 17.4298C119.993 16.9713 120.677 16.639 121.419 16.4327C122.184 16.2034 122.996 16.0888 123.854 16.0888C125.014 16.0888 126.022 16.2837 126.88 16.6733C127.762 17.063 128.446 17.6934 128.933 18.5645C129.443 19.4355 129.698 20.616 129.698 22.106V34.5874H126.637V22.5186C126.637 21.7622 126.533 21.1433 126.324 20.6619C126.138 20.1805 125.872 19.8023 125.524 19.5272C125.199 19.2521 124.793 19.0573 124.306 18.9427C123.842 18.8281 123.321 18.7708 122.741 18.7708C121.883 18.7708 121.071 18.9771 120.306 19.3897C119.541 19.8023 118.926 20.3983 118.462 21.1776C118.022 21.957 117.801 22.8854 117.801 23.9627V34.5874H114.74Z" fill="white"/>
<path d="M102.494 34.5874V16.5014H104.964L105.242 19.4928H105.486C105.671 18.9198 105.926 18.3811 106.251 17.8768C106.576 17.3496 107.016 16.9255 107.573 16.6046C108.129 16.2607 108.814 16.0888 109.625 16.0888C109.973 16.0888 110.286 16.1232 110.564 16.192C110.866 16.2378 111.086 16.2951 111.225 16.3639V19.149H110.077C109.289 19.149 108.605 19.2865 108.025 19.5616C107.468 19.8138 107.005 20.1805 106.634 20.6619C106.263 21.1433 105.984 21.7163 105.799 22.3811C105.636 23.0458 105.555 23.7564 105.555 24.5129V34.5874H102.494Z" fill="white"/>
<path d="M90.0468 35C88.2379 35 86.7074 34.6676 85.4551 34.0029C84.226 33.3152 83.2868 32.2722 82.6375 30.8739C82.0113 29.4756 81.6982 27.6991 81.6982 25.5444C81.6982 23.3668 82.0113 21.5903 82.6375 20.2149C83.2868 18.8166 84.2376 17.7851 85.4899 17.1203C86.7421 16.4327 88.3075 16.0888 90.1859 16.0888C91.902 16.0888 93.3398 16.4212 94.4993 17.086C95.6588 17.7278 96.5285 18.702 97.1082 20.0086C97.7112 21.2923 98.0127 22.9083 98.0127 24.8567V26.3009H84.8637C84.9101 27.745 85.1188 28.937 85.4899 29.8768C85.8841 30.7937 86.4639 31.4699 87.2291 31.9054C87.9944 32.3181 88.9568 32.5244 90.1164 32.5244C90.9048 32.5244 91.5889 32.4327 92.1687 32.2493C92.7716 32.043 93.2702 31.7564 93.6645 31.3897C94.0819 31.0229 94.395 30.5874 94.6037 30.0831C94.8124 29.5788 94.9284 29.0287 94.9515 28.4327H97.9431C97.9199 29.3954 97.7344 30.2894 97.3865 31.1146C97.0387 31.9169 96.5285 32.6046 95.856 33.1777C95.1834 33.7507 94.3602 34.1977 93.3862 34.5186C92.4122 34.8395 91.2991 35 90.0468 35ZM84.9333 24.0315H94.8472C94.8472 23.0229 94.7312 22.1748 94.4993 21.4871C94.2674 20.7994 93.9312 20.2378 93.4905 19.8023C93.0731 19.3668 92.5745 19.0573 91.9948 18.8739C91.4382 18.6676 90.8005 18.5645 90.0816 18.5645C89.0148 18.5645 88.1104 18.7593 87.3683 19.149C86.6262 19.5387 86.058 20.1347 85.6638 20.937C85.2696 21.7393 85.0261 22.7708 84.9333 24.0315Z" fill="white"/>
<path d="M67.9051 34.5874L59 11H62.5829L68.7052 27.7106C68.8443 28.0315 68.9835 28.3983 69.1226 28.8109C69.2617 29.2235 69.4009 29.6246 69.54 30.0143C69.6792 30.404 69.8067 30.7479 69.9227 31.0459H70.1314C70.2241 30.7708 70.3401 30.4384 70.4792 30.0487C70.6184 29.659 70.7575 29.2693 70.8967 28.8797C71.0358 28.4671 71.1749 28.0774 71.3141 27.7106L77.3668 11H80.8453L71.9054 34.5874H67.9051Z" fill="white"/>
</svg>
