<svg width="20" height="20" viewBox="0 0 20 20" fill="none" xmlns="http://www.w3.org/2000/svg">
<rect width="20" height="20" rx="4" fill="#F94834"/>
<path fill-rule="evenodd" clip-rule="evenodd" d="M9.81008 11.924H4.94795V7.17377L9.81008 4.21849V11.924ZM13.3529 16V11.7656H15.3021V16H15.7619V11.5235C15.7619 11.4595 15.7377 11.3979 15.6945 11.3524C15.6514 11.307 15.5928 11.2815 15.532 11.2815H13.123C13.0622 11.2815 13.0036 11.307 12.9605 11.3524C12.9176 11.3979 12.8934 11.4595 12.8934 11.5235V16H13.3529ZM4.94174 16V13.9768H6.7215V16H7.18132V13.7347C7.18132 13.6703 7.15712 13.6091 7.11395 13.5636C7.07078 13.5182 7.01224 13.4927 6.95141 13.4927H4.71216C4.651 13.4927 4.59246 13.5182 4.54962 13.5636C4.50645 13.6091 4.48225 13.6703 4.48225 13.7347V16H4.94174ZM4.94174 16V13.9768H6.7215V16H7.18132V13.7347C7.18132 13.6703 7.15712 13.6091 7.11395 13.5636C7.07078 13.5182 7.01224 13.4927 6.95141 13.4927H4.71216C4.651 13.4927 4.59246 13.5182 4.54962 13.5636C4.50645 13.6091 4.48225 13.6703 4.48225 13.7347V16H4.94174ZM4.94174 16V13.9768H6.7215V16H7.18132V13.7347C7.18132 13.6703 7.15712 13.6091 7.11395 13.5636C7.07078 13.5182 7.01224 13.4927 6.95141 13.4927H4.71216C4.651 13.4927 4.59246 13.5182 4.54962 13.5636C4.50645 13.6091 4.48225 13.6703 4.48225 13.7347V16H4.94174ZM4.94174 16V13.9768H6.7215V16H7.18132V13.7347C7.18132 13.6703 7.15712 13.6091 7.11395 13.5636C7.07078 13.5182 7.01224 13.4927 6.95141 13.4927H4.71216C4.651 13.4927 4.59246 13.5182 4.54962 13.5636C4.50645 13.6091 4.48225 13.6703 4.48225 13.7347V16H4.94174ZM4.94174 16V13.9768H6.7215V16H7.18132V13.7347C7.18132 13.6703 7.15712 13.6091 7.11395 13.5636C7.07078 13.5182 7.01224 13.4927 6.95141 13.4927H4.71216C4.651 13.4927 4.59246 13.5182 4.54962 13.5636C4.50645 13.6091 4.48225 13.6703 4.48225 13.7347V16H4.94174ZM3.36867 16V12.4077H11.8479V16H12.3077V12.166C12.3077 12.1016 12.2835 12.0403 12.2403 11.9949C12.1972 11.9494 12.1386 11.924 12.0778 11.924H10.2696V7.29703L16.6315 8.87883V16H17.091V8.68739C17.091 8.63298 17.0737 8.57996 17.0416 8.53726C17.0092 8.49457 16.9644 8.46461 16.9141 8.45187L10.2696 6.79984V3.93925L11.0718 3.45169C11.1248 3.41933 11.163 3.36665 11.1791 3.30467C11.1948 3.24269 11.1866 3.17658 11.1562 3.12115C11.1254 3.06537 11.0754 3.02508 11.0165 3.00821C10.9577 2.99169 10.8949 3.00029 10.8419 3.03231L3.51911 7.48365C3.46646 7.51567 3.42787 7.5687 3.41217 7.63068C3.39647 7.69265 3.40465 7.75876 3.43506 7.8142C3.46548 7.86963 3.51584 7.91026 3.57471 7.92679C3.63358 7.94366 3.69604 7.93471 3.74902 7.90269L4.48846 7.45335V11.924H3.13876C3.07793 11.924 3.01939 11.9494 2.97655 11.9949C2.93338 12.0403 2.90918 12.1016 2.90918 12.166V16H3.36867Z" fill="black"/>
</svg>
