<svg width="69" height="20" viewBox="0 0 69 20" fill="none" xmlns="http://www.w3.org/2000/svg">
<g clip-path="url(#clip0_1661_575)">
<path d="M50.8392 15.0149C52.0853 15.0149 53.0955 14.0098 53.0955 12.7699C53.0955 11.53 52.0853 10.5249 50.8392 10.5249C49.5932 10.5249 48.583 11.53 48.583 12.7699C48.583 14.0098 49.5932 15.0149 50.8392 15.0149Z" fill="#E62415"/>
<path d="M17.9962 0.059082H20.9819V19.2176H17.9962V0.059082ZM31.8559 13.3097C31.8559 16.2806 29.413 16.5169 28.6666 16.5169C26.8006 16.5169 26.5291 14.7783 26.5291 13.7317V6.32149H23.5265V13.7148C23.5095 15.5547 24.0354 17.0739 25.0532 18.0867C25.9777 18.9066 27.1553 19.3886 28.392 19.453C29.6286 19.5174 30.8505 19.1605 31.8559 18.4412V19.2176H34.8585V6.32149H31.8559V13.3097ZM41.3388 1.98338H38.3362V6.32149H36.2496V9.14041H38.3362V19.2176H41.3388V9.14041H43.7986V6.32149H41.3388V1.98338ZM53.5191 15.5547C52.8405 16.1624 51.9414 16.5 50.9575 16.5C50.4576 16.5141 49.9602 16.4262 49.4957 16.2418C49.0313 16.0574 48.6097 15.7804 48.2569 15.4278C47.9041 15.0751 47.6276 14.6544 47.4443 14.1914C47.2611 13.7285 47.1751 13.2331 47.1915 12.7358C47.1915 10.5583 48.7352 9.03913 50.9575 9.03913C51.9245 9.03913 52.8405 9.35985 53.536 9.96752L54.011 10.3726L56.1146 8.27954L55.5887 7.80691C54.3148 6.67635 52.6644 6.05677 50.9575 6.06829C47.0557 6.06829 44.2227 8.87034 44.2227 12.7189C44.202 13.6062 44.3618 14.4884 44.6925 15.3127C45.0231 16.1369 45.5179 16.8861 46.147 17.5152C46.7761 18.1443 47.5265 18.6404 48.3532 18.9735C49.1799 19.3067 50.0657 19.4701 50.9575 19.454C52.7387 19.454 54.4012 18.8294 55.6226 17.6985L56.1316 17.2258L53.9941 15.1327L53.5191 15.5547ZM67.3788 7.45243C66.4544 6.6325 65.2767 6.15057 64.0401 6.08613C62.8034 6.02169 61.5816 6.37859 60.5762 7.09796V0.059082H57.5735V19.2176H60.5762V12.2463C60.5762 9.27545 63.019 9.03913 63.7654 9.03913C65.6315 9.03913 65.9029 10.7778 65.9029 11.8243V19.2345H68.9056V11.8243C68.9961 10.2237 68.4474 8.65227 67.3788 7.45243ZM13.5685 14.6263C12.9844 15.2235 12.2851 15.6971 11.5127 16.0191C10.7403 16.341 9.91048 16.5046 9.07303 16.5C5.59538 16.5 3.06772 13.7824 3.06772 10.0519C3.06772 6.30461 5.59538 3.58696 9.07303 3.58696C10.7525 3.58696 12.3471 4.24527 13.5516 5.44374L14.0266 5.91637L16.1131 3.84016L15.6551 3.36752C14.7944 2.49642 13.767 1.80566 12.6336 1.33601C11.5002 0.866359 10.2838 0.62732 9.05606 0.632995C3.94986 0.632995 0.0820312 4.68415 0.0820312 10.0688C0.0820312 15.4197 3.94986 19.4708 9.05606 19.4708C11.5837 19.4708 13.9248 18.4918 15.6551 16.7194L16.1131 16.2468L14.0435 14.1368L13.5685 14.6263Z" fill="#17313B"/>
</g>
<defs>
<clipPath id="clip0_1661_575">
<rect width="68.8235" height="19.4118" fill="white" transform="translate(0.0820312 0.059082)"/>
</clipPath>
</defs>
</svg>
