<svg width="60" height="21" viewBox="0 0 60 21" fill="none" xmlns="http://www.w3.org/2000/svg">
<g clip-path="url(#clip0_1661_673)">
<path d="M7.53976 0.865723H8.06534C9.88998 0.906039 11.6849 1.65188 12.974 2.97223C12.498 3.4661 12.0121 3.93981 11.546 4.43368C10.8221 3.76847 9.94948 3.25444 8.99749 3.07302C7.58935 2.77065 6.07212 3.04278 4.89205 3.85918C3.6029 4.71589 2.73025 6.16726 2.54183 7.71943C2.33359 9.25143 2.76 10.8641 3.74173 12.0534C4.6838 13.2125 6.1217 13.9382 7.60918 13.9885C8.99749 14.0692 10.4453 13.6358 11.4568 12.648C12.2501 11.9526 12.617 10.8943 12.736 9.86625C11.0899 9.86625 9.44374 9.87633 7.79759 9.86625V7.78998H14.7292C15.0862 10.0174 14.5706 12.5271 12.9046 14.1196C11.794 15.2484 10.2569 15.9136 8.69008 16.0447C7.17285 16.1958 5.60604 15.9036 4.25739 15.1577C2.641 14.2808 1.35185 12.7992 0.717191 11.0556C0.122199 9.45301 0.112283 7.63879 0.667608 6.02616C1.17335 4.55463 2.14517 3.25444 3.39465 2.34733C4.59455 1.4503 6.05228 0.956433 7.53976 0.865723Z" fill="#3780FF"/>
<path d="M47.3047 1.38965H49.4268V15.7824C48.7228 15.7824 48.0088 15.7925 47.3047 15.7723C47.3146 10.9848 47.3047 6.18724 47.3047 1.38965Z" fill="#38B137"/>
<path d="M19.4495 6.37896C20.7585 6.12698 22.1765 6.4092 23.2574 7.20543C24.2392 7.91096 24.9234 9.01965 25.1316 10.2291C25.3994 11.6301 25.0622 13.1621 24.1697 14.2708C23.2078 15.5105 21.6311 16.1757 20.094 16.0749C18.6859 15.9943 17.3174 15.2787 16.4844 14.1095C15.5424 12.8194 15.3143 11.0455 15.8299 9.53368C16.3456 7.91096 17.8033 6.67125 19.4495 6.37896ZM19.747 8.29396C19.2115 8.43507 18.7157 8.74752 18.3587 9.19099C17.3968 10.3602 17.4563 12.2651 18.5173 13.3536C19.1222 13.9785 20.0345 14.2708 20.8775 14.0995C21.6609 13.9583 22.3451 13.4242 22.7219 12.7186C23.3764 11.5192 23.188 9.86628 22.1864 8.92894C21.5419 8.3242 20.5998 8.07223 19.747 8.29396Z" fill="#FA3913"/>
<path d="M29.961 6.37872C31.4584 6.08643 33.0946 6.50975 34.2152 7.57812C36.0398 9.24115 36.2382 12.3556 34.6813 14.2706C33.7392 15.48 32.2121 16.1452 30.7047 16.0747C29.2669 16.0344 27.8488 15.3087 26.996 14.1093C26.0341 12.789 25.8258 10.9747 26.3712 9.43265C26.9166 7.86033 28.3446 6.66094 29.961 6.37872ZM30.2585 8.29373C29.723 8.43483 29.2272 8.74728 28.8702 9.18068C27.9182 10.3297 27.9579 12.2044 28.9793 13.303C29.5842 13.9581 30.5262 14.2806 31.3989 14.0992C32.1724 13.948 32.8666 13.4239 33.2434 12.7184C33.888 11.5089 33.6995 9.85597 32.6881 8.91863C32.0435 8.31389 31.1014 8.07199 30.2585 8.29373Z" fill="#FCBD06"/>
<path d="M38.8761 6.96313C40.0165 6.23744 41.5337 6.03586 42.7634 6.66076C43.1501 6.8321 43.4674 7.12439 43.7748 7.41668C43.7848 7.14455 43.7748 6.86234 43.7848 6.58013C44.4492 6.59021 45.1136 6.58013 45.7879 6.59021V15.4799C45.778 16.8204 45.4408 18.2415 44.4888 19.2192C43.4476 20.2976 41.851 20.6302 40.4131 20.4085C38.8761 20.1767 37.5373 19.0377 36.9423 17.5964C37.5373 17.3042 38.1621 17.0723 38.7769 16.8002C39.124 17.6267 39.8281 18.3322 40.7106 18.4935C41.5932 18.6547 42.6146 18.433 43.1898 17.6872C43.8046 16.9212 43.8046 15.8729 43.7748 14.9356C43.3187 15.3892 42.7931 15.7923 42.1584 15.9435C40.78 16.3366 39.2628 15.8528 38.2017 14.9054C37.1308 13.9579 36.4961 12.4965 36.5556 11.0451C36.5854 9.40224 37.4977 7.81984 38.8761 6.96313ZM40.9288 8.25324C40.3239 8.35403 39.7586 8.69671 39.3719 9.17043C38.4397 10.2993 38.4397 12.1034 39.3818 13.2121C39.9173 13.8672 40.78 14.2301 41.613 14.1394C42.3964 14.0587 43.1203 13.5548 43.5071 12.8593C44.1616 11.6801 44.0525 10.0775 43.1699 9.04948C42.6245 8.4145 41.7519 8.10205 40.9288 8.25324Z" fill="#3780FF"/>
<path d="M51.9752 7.4771C53.1652 6.34826 54.9998 5.96526 56.5269 6.55991C57.9747 7.11426 58.897 8.51524 59.363 9.95653C57.2112 10.8636 55.0692 11.7607 52.9173 12.6678C53.2148 13.2423 53.671 13.7664 54.2858 13.978C55.1485 14.2905 56.1798 14.1796 56.9037 13.595C57.1913 13.3733 57.4194 13.081 57.6376 12.7988C58.183 13.1717 58.7284 13.5346 59.2738 13.9075C58.5003 15.0867 57.2012 15.9132 55.803 16.0442C54.256 16.2357 52.6099 15.631 51.6083 14.4014C49.9622 12.4662 50.1208 9.22076 51.9752 7.4771ZM53.0363 9.34171C52.6991 9.83558 52.5603 10.4403 52.5702 11.035C54.0081 10.4302 55.446 9.8255 56.8839 9.21069C56.6459 8.64626 56.0708 8.30358 55.4857 8.21287C54.5436 8.04152 53.5619 8.55555 53.0363 9.34171Z" fill="#FA3913"/>
</g>
<defs>
<clipPath id="clip0_1661_673">
<rect width="59.1025" height="19.6071" fill="white" transform="translate(0.260742 0.86377)"/>
</clipPath>
</defs>
</svg>
