<svg width="54" height="54" viewBox="0 0 54 54" fill="none" xmlns="http://www.w3.org/2000/svg">
<path d="M16.8091 35.1137H44.4546C44.6505 35.1137 44.8384 35.1916 44.977 35.3301C45.1155 35.4687 45.1934 35.6566 45.1934 35.8525C45.1934 36.0485 45.1155 36.2364 44.977 36.3749C44.8384 36.5135 44.6505 36.5913 44.4546 36.5913H16.8091C16.7121 36.5913 16.616 36.5722 16.5264 36.5351C16.4367 36.498 16.3553 36.4435 16.2867 36.3749C16.2181 36.3063 16.1637 36.2249 16.1265 36.1353C16.0894 36.0456 16.0703 35.9495 16.0703 35.8525C16.0703 35.7555 16.0894 35.6594 16.1265 35.5698C16.1637 35.4802 16.2181 35.3987 16.2867 35.3301C16.3553 35.2615 16.4367 35.2071 16.5264 35.1699C16.616 35.1328 16.7121 35.1137 16.8091 35.1137ZM44.4546 40.6508H16.8091C16.6132 40.6508 16.4252 40.7287 16.2867 40.8672C16.1481 41.0058 16.0703 41.1937 16.0703 41.3896C16.0703 41.5856 16.1481 41.7735 16.2867 41.912C16.4252 42.0506 16.6132 42.1284 16.8091 42.1284H44.4546C44.6505 42.1284 44.8384 42.0506 44.977 41.912C45.1155 41.7735 45.1934 41.5856 45.1934 41.3896C45.1934 41.1937 45.1155 41.0058 44.977 40.8672C44.8384 40.7287 44.6505 40.6508 44.4546 40.6508ZM11.9596 19.9204H9.7081V22.0131H11.9593C12.2368 22.0131 12.503 21.9029 12.6992 21.7066C12.8954 21.5104 13.0057 21.2443 13.0057 20.9668C13.0057 20.6893 12.8954 20.4231 12.6992 20.2269C12.503 20.0307 12.2368 19.9204 11.9593 19.9204H11.9596ZM44.4546 46.1879H16.8091C16.7122 46.1879 16.6161 46.207 16.5266 46.2441C16.437 46.2812 16.3556 46.3356 16.2871 46.4042C16.2185 46.4727 16.1641 46.5541 16.127 46.6437C16.0899 46.7333 16.0708 46.8293 16.0708 46.9262C16.0708 47.0232 16.0899 47.1192 16.127 47.2087C16.1641 47.2983 16.2185 47.3797 16.2871 47.4483C16.3556 47.5168 16.437 47.5712 16.5266 47.6083C16.6161 47.6454 16.7122 47.6645 16.8091 47.6645H44.4546C44.6504 47.6645 44.8382 47.5867 44.9766 47.4483C45.1151 47.3098 45.1929 47.122 45.1929 46.9262C45.1929 46.7304 45.1151 46.5426 44.9766 46.4042C44.8382 46.2657 44.6504 46.1879 44.4546 46.1879ZM20.0345 23.9356V21.5684C20.0337 21.1312 19.8594 20.7123 19.55 20.4034C19.2407 20.0946 18.8214 19.9211 18.3843 19.9209H16.7339V25.5864H18.3843C18.8219 25.5859 19.2414 25.4118 19.5508 25.1023C19.8602 24.7928 20.0342 24.3732 20.0345 23.9356ZM50.712 15.8541V49.4701C50.7102 50.6715 50.2319 51.8231 49.3821 52.6723C48.5323 53.5216 47.3804 53.999 46.179 54H15.0836C13.8823 53.999 12.7305 53.5215 11.8809 52.6722C11.0313 51.823 10.5532 50.6714 10.5516 49.4701V30.3908H4.86477C4.44704 30.3902 4.0466 30.224 3.75122 29.9287C3.45585 29.6333 3.28965 29.2328 3.28906 28.8151V16.6915C3.28945 16.2737 3.45559 15.8731 3.75101 15.5777C4.04642 15.2823 4.44698 15.1162 4.86477 15.1158H10.5516V4.53199C10.553 3.33044 11.0309 2.17847 11.8805 1.32884C12.7301 0.47921 13.8821 0.00131209 15.0836 0L34.858 0C35.0537 0.000400522 35.2413 0.0781113 35.38 0.216211L50.4958 15.332C50.6339 15.4707 50.7116 15.6583 50.712 15.8541ZM11.9593 23.49C12.2907 23.49 12.6188 23.4247 12.925 23.2979C13.2311 23.1711 13.5093 22.9852 13.7436 22.7509C13.9779 22.5166 14.1638 22.2384 14.2906 21.9323C14.4174 21.6262 14.4827 21.298 14.4827 20.9667C14.4827 20.6353 14.4174 20.3072 14.2906 20.001C14.1638 19.6949 13.9779 19.4167 13.7436 19.1824C13.5093 18.9481 13.2311 18.7622 12.925 18.6354C12.6188 18.5086 12.2907 18.4433 11.9593 18.4433H8.96961C8.77381 18.4433 8.58602 18.5211 8.44757 18.6596C8.30911 18.798 8.23133 18.9858 8.23133 19.1816V26.3241C8.23133 26.5199 8.30911 26.7076 8.44757 26.8461C8.58602 26.9845 8.77381 27.0623 8.96961 27.0623C9.16541 27.0623 9.3532 26.9845 9.49165 26.8461C9.63011 26.7076 9.70789 26.5199 9.70789 26.3241V23.4901L11.9593 23.49ZM49.2355 16.5934H36.9652C36.2106 16.5924 35.4871 16.2922 34.9534 15.7586C34.4198 15.225 34.1196 14.5015 34.1186 13.7468V1.47656H15.0836C14.2736 1.47762 13.4971 1.79987 12.9243 2.37265C12.3515 2.94542 12.0293 3.72197 12.0282 4.53199V15.1158H31.9038C32.3216 15.1162 32.7221 15.2823 33.0175 15.5777C33.313 15.8731 33.4791 16.2737 33.4795 16.6915V28.8151C33.4789 29.2328 33.3127 29.6333 33.0173 29.9287C32.722 30.224 32.3215 30.3902 31.9038 30.3908H12.0282V49.4701C12.0296 50.2798 12.352 51.056 12.9248 51.6283C13.4976 52.2007 14.2739 52.5226 15.0836 52.5234H46.179C46.9889 52.5229 47.7655 52.2011 48.3385 51.6287C48.9115 51.0563 49.2341 50.28 49.2355 49.4701V16.5934ZM15.9954 27.0633H18.3843C19.2134 27.0623 20.0082 26.7325 20.5945 26.1462C21.1807 25.56 21.5105 24.7651 21.5114 23.936V21.5684C21.5101 20.7396 21.1802 19.9453 20.5939 19.3595C20.0077 18.7738 19.213 18.4445 18.3843 18.444H15.9954C15.7996 18.444 15.6118 18.5217 15.4734 18.6602C15.3349 18.7986 15.2571 18.9864 15.2571 19.1822V26.3247C15.2571 26.4217 15.2762 26.5177 15.3132 26.6073C15.3503 26.6969 15.4047 26.7783 15.4733 26.8469C15.5418 26.9155 15.6232 26.9699 15.7128 27.0071C15.8024 27.0442 15.8984 27.0633 15.9954 27.0633ZM23.7627 22.0131V19.9204H27.7987C27.9945 19.9204 28.1823 19.8426 28.3208 19.7042C28.4592 19.5657 28.537 19.3779 28.537 19.1821C28.537 18.9863 28.4592 18.7985 28.3208 18.6601C28.1823 18.5216 27.9945 18.4438 27.7987 18.4438H23.0244C22.8286 18.4438 22.6408 18.5216 22.5023 18.6601C22.3639 18.7985 22.2861 18.9863 22.2861 19.1821V26.3246C22.2861 26.4215 22.3052 26.5175 22.3423 26.6071C22.3794 26.6967 22.4338 26.7781 22.5023 26.8466C22.5709 26.9152 22.6523 26.9696 22.7418 27.0067C22.8314 27.0438 22.9274 27.0629 23.0244 27.0629C23.1213 27.0629 23.2173 27.0438 23.3069 27.0067C23.3965 26.9696 23.4779 26.9152 23.5464 26.8466C23.615 26.7781 23.6694 26.6967 23.7065 26.6071C23.7436 26.5175 23.7627 26.4215 23.7627 26.3246V23.4901H27.0902C27.286 23.4901 27.4738 23.4123 27.6122 23.2739C27.7507 23.1354 27.8285 22.9476 27.8285 22.7518C27.8285 22.556 27.7507 22.3682 27.6122 22.2298C27.4738 22.0913 27.286 22.0135 27.0902 22.0135L23.7627 22.0131Z" fill="#F94852"/>
</svg>
